<?xml version="1.0" encoding="UTF-8"?>
<svg width="500" height="500" viewBox="0 0 500 500" fill="none" xmlns="http://www.w3.org/2000/svg">
  <!-- Fondo transparente -->
  
  <!-- Círculos decorativos -->
  <circle cx="250" cy="250" r="150" fill="url(#paint1_radial)" fill-opacity="0.3" />
  <circle cx="250" cy="250" r="100" fill="url(#paint2_radial)" fill-opacity="0.4" />
  
  <!-- Nodos (personas) -->
  <circle cx="150" cy="150" r="25" fill="#6D28D9" />
  <circle cx="350" cy="150" r="25" fill="#8B5CF6" />
  <circle cx="150" cy="350" r="25" fill="#A78BFA" />
  <circle cx="350" cy="350" r="25" fill="#6D28D9" />
  <circle cx="250" cy="100" r="25" fill="#8B5CF6" />
  <circle cx="250" cy="400" r="25" fill="#A78BFA" />
  <circle cx="250" cy="250" r="30" fill="#6D28D9" />
  
  <!-- Líneas de conexión -->
  <line x1="150" y1="150" x2="250" y2="250" stroke="#8B5CF6" stroke-width="3" />
  <line x1="350" y1="150" x2="250" y2="250" stroke="#8B5CF6" stroke-width="3" />
  <line x1="150" y1="350" x2="250" y2="250" stroke="#8B5CF6" stroke-width="3" />
  <line x1="350" y1="350" x2="250" y2="250" stroke="#8B5CF6" stroke-width="3" />
  <line x1="250" y1="100" x2="250" y2="250" stroke="#8B5CF6" stroke-width="3" />
  <line x1="250" y1="400" x2="250" y2="250" stroke="#8B5CF6" stroke-width="3" />
  
  <!-- Conexiones adicionales -->
  <line x1="150" y1="150" x2="350" y2="150" stroke="#8B5CF6" stroke-width="2" stroke-dasharray="5,5" />
  <line x1="150" y1="350" x2="350" y2="350" stroke="#8B5CF6" stroke-width="2" stroke-dasharray="5,5" />
  <line x1="150" y1="150" x2="150" y2="350" stroke="#8B5CF6" stroke-width="2" stroke-dasharray="5,5" />
  <line x1="350" y1="150" x2="350" y2="350" stroke="#8B5CF6" stroke-width="2" stroke-dasharray="5,5" />
  
  <!-- Iconos de persona simplificados -->
  <circle cx="150" cy="150" r="15" fill="white" />
  <circle cx="350" cy="150" r="15" fill="white" />
  <circle cx="150" cy="350" r="15" fill="white" />
  <circle cx="350" cy="350" r="15" fill="white" />
  <circle cx="250" cy="100" r="15" fill="white" />
  <circle cx="250" cy="400" r="15" fill="white" />
  <circle cx="250" cy="250" r="20" fill="white" />
  
  <!-- Iconos de recomendación -->
  <rect x="180" y="180" width="30" height="20" rx="5" fill="white" />
  <rect x="290" y="180" width="30" height="20" rx="5" fill="white" />
  <rect x="180" y="290" width="30" height="20" rx="5" fill="white" />
  <rect x="290" y="290" width="30" height="20" rx="5" fill="white" />
  
  <!-- Definiciones de gradientes -->
  <defs>
    <radialGradient id="paint1_radial" cx="0" cy="0" r="1" gradientUnits="userSpaceOnUse" gradientTransform="translate(250 250) rotate(90) scale(150)">
      <stop offset="0" stop-color="#8B5CF6" />
      <stop offset="1" stop-color="#6D28D9" stop-opacity="0" />
    </radialGradient>
    <radialGradient id="paint2_radial" cx="0" cy="0" r="1" gradientUnits="userSpaceOnUse" gradientTransform="translate(250 250) rotate(90) scale(100)">
      <stop offset="0" stop-color="#A78BFA" />
      <stop offset="1" stop-color="#8B5CF6" stop-opacity="0" />
    </radialGradient>
  </defs>
</svg>
